<svg width="1608" height="832" viewBox="0 0 1608 832" fill="none" xmlns="http://www.w3.org/2000/svg">
<path d="M642.052 331.554C642.037 335.184 641.935 348.804 641.824 361.821L641.623 385.488H629.831C610.572 385.488 603.76 387.743 594.227 397.274C590.897 400.603 587.327 405.251 586.148 407.79C581.018 418.844 581.205 416.528 580.909 472.822C580.758 501.58 580.323 525.354 579.943 525.652C579.563 525.952 564.501 525.975 546.473 525.707L513.693 525.217V327.685L544.543 327.446C566.552 327.275 575.751 327.502 576.639 328.24C577.541 328.987 577.886 331.767 577.886 338.265C577.886 344.716 578.198 347.257 578.993 347.257C579.601 347.257 581.958 345.432 584.229 343.202C589.566 337.96 601.828 330.626 609.551 328.057C617.208 325.509 623.509 324.674 633.884 324.831L642.078 324.954L642.052 331.554Z" fill="white"/>
<path d="M1111.78 323.143C1130.19 325.936 1142.25 331.829 1155.15 344.332C1165.1 353.979 1170.77 364.885 1174.13 380.856C1175.3 386.426 1175.53 398.262 1175.59 456.217C1175.63 494.032 1175.42 525.212 1175.13 525.505C1174.34 526.291 1112.58 526.342 1110.23 525.559L1108.23 524.89L1107.91 466.82C1107.56 403.743 1107.59 404.172 1102.34 395.208C1096.33 384.961 1083.81 379.157 1071.8 381.055C1065.99 381.973 1062.43 383.881 1056.88 389.049C1049.73 395.72 1046.41 402.297 1044.88 412.847C1044.55 415.1 1044.1 441.316 1043.87 471.105L1043.46 525.267H977.072L976.783 426.753C976.539 343.871 976.691 328.163 977.743 327.76C978.431 327.496 992.226 327.28 1008.4 327.28C1030.84 327.28 1038.02 327.549 1038.71 328.418C1039.21 329.044 1039.83 333.164 1040.09 337.575C1040.35 341.986 1040.8 345.827 1041.08 346.11C1041.37 346.394 1043.56 345.025 1045.96 343.067C1059.86 331.725 1067.9 327.141 1077.74 324.952C1092.79 321.604 1099.35 321.256 1111.78 323.143Z" fill="white"/>
<path fill-rule="evenodd" clip-rule="evenodd" d="M1301.08 324.124C1305.79 324.887 1312.35 326.584 1315.65 327.897C1323.34 330.947 1334.52 338.076 1338.28 342.319C1339.88 344.133 1341.62 345.358 1342.13 345.042C1342.64 344.725 1343.06 341.068 1343.06 336.895C1343.06 331.597 1343.43 329.013 1344.3 328.289C1345.19 327.552 1354.27 327.323 1375.94 327.494L1406.34 327.735L1406.05 420.129C1405.88 474.895 1405.38 515.476 1404.84 519.777C1403.83 527.757 1399.89 540.527 1396.18 547.858C1383.95 572.012 1363.4 587.242 1331.22 596.006C1321.29 598.709 1282.6 599.445 1269.09 597.187C1253.71 594.616 1237.47 588.185 1223.78 579.243C1214.62 573.26 1207.3 566.867 1204.58 562.468L1202.62 559.294L1204.78 556.989C1209.78 551.643 1241.18 528.464 1243.42 528.457C1244.46 528.454 1248.35 530.741 1252.07 533.537C1266.04 544.039 1275.04 546.88 1294.8 547.021C1307.91 547.112 1308.05 547.092 1315.29 543.986C1320.67 541.674 1323.81 539.594 1327.31 536.017C1335.89 527.272 1338.64 520.47 1339.85 505.013C1340.65 494.955 1340.24 494.691 1333.59 500.975C1327.53 506.689 1317.12 512.71 1309.51 514.893C1306.18 515.851 1298.64 517.093 1292.75 517.655C1274.99 519.352 1256.59 515.808 1242.08 507.897C1225.76 499.006 1214.19 487.051 1206.24 470.883C1200.35 458.899 1199.92 457.761 1197.38 447.071C1193.36 430.168 1193.35 414.617 1197.37 396.006C1199.96 383.994 1200.92 381.272 1206.59 369.731C1214.65 353.306 1225.16 342.826 1243.89 332.509C1259.98 323.651 1280.03 320.711 1301.08 324.124ZM1264.64 404.253C1270.23 392.023 1277.6 384.603 1287.81 380.926C1297.16 377.562 1310.02 379.078 1319.95 384.714C1332.18 391.653 1338.87 405.025 1338.8 422.404C1338.72 440.759 1331.52 452.711 1315.91 460.39C1310.29 463.152 1309.2 463.367 1300.73 463.367C1292.09 463.367 1291.26 463.194 1284.78 460.037C1273.75 454.658 1267.45 447.317 1263.31 435.026C1261.18 428.714 1260.95 426.843 1261.33 419.218C1261.68 412 1262.23 409.527 1264.64 404.253Z" fill="white"/>
<path d="M732.36 287.416C733.131 288.142 732.745 300.881 732.852 306.924C732.934 311.54 733.377 323.293 733.837 333.04C734.296 342.788 734.852 355.325 735.071 360.901C736.492 397.14 738.566 446.327 739.053 455.392C739.275 459.516 739.338 463.806 739.193 464.924L738.929 466.956L715.1 469.795C697.044 471.947 691.039 472.406 690.313 471.689C689.786 471.168 688.687 467.192 687.87 462.855C687.054 458.518 685.572 451.056 684.577 446.273C681.297 430.508 678.324 415.393 675.77 401.493C674.385 393.956 672.067 382.583 670.619 376.22C669.17 369.858 666.901 359.053 665.577 352.209C664.253 345.364 662.279 335.67 661.193 330.664C658.114 316.485 653.77 298.21 654.146 296.737C654.45 295.549 660.693 294.82 692.885 290.983C722.436 287.461 731.495 286.601 732.36 287.416Z" fill="white"/>
<path d="M732.704 489.016C738.683 490.613 747.019 496.453 751.218 501.986C756.769 509.299 759.583 520.667 758.072 529.67C757.128 535.298 752.765 544.107 748.935 548.115C742.201 555.166 730.196 560.439 721.173 560.309C704.537 560.07 690.502 549.851 685.612 534.417C680.964 519.747 688.411 501.098 702.052 493.247C707.899 489.883 710.958 489.011 719.43 488.296C725.446 487.79 728.788 487.97 732.704 489.016Z" fill="white"/>
<path d="M851.492 292.35C852.147 293.182 849.885 305.725 849.099 311.717C848.499 316.294 847.202 327.984 846.218 337.693C845.233 347.402 843.931 359.884 843.325 365.43C839.381 401.482 834.17 450.436 833.314 459.474C832.925 463.586 832.353 467.838 832.045 468.922L831.484 470.893L807.497 470.184C789.321 469.646 783.314 469.213 782.702 468.397C782.258 467.804 781.757 463.71 781.591 459.3C781.424 454.889 781.059 447.291 780.781 442.413C779.864 426.337 779.156 410.948 778.682 396.823C778.424 389.164 777.81 377.574 777.317 371.067C776.824 364.561 776.175 353.539 775.876 346.574C775.576 339.61 775.056 329.73 774.72 324.619C773.768 310.14 772.17 291.424 772.759 290.023C773.235 288.893 779.517 289.093 811.923 290.051C841.67 290.93 850.757 291.416 851.492 292.35Z" fill="white"/>
<path d="M822.071 491.793C827.748 494.255 835.131 501.261 838.468 507.353C842.878 515.405 843.983 527.065 841.159 535.746C839.395 541.173 833.779 549.241 829.4 552.64C821.698 558.62 809.046 562.062 800.142 560.602C783.724 557.909 771.351 545.731 768.792 529.744C766.361 514.549 776.479 497.203 791.13 491.452C797.409 488.988 800.564 488.577 809.049 489.121C815.073 489.508 818.353 490.18 822.071 491.793Z" fill="white"/>
<path d="M960.793 296.157C961.38 297.038 958.142 309.364 956.888 315.277C955.932 319.793 953.722 331.345 951.98 340.947C950.237 350.548 947.961 362.89 946.921 368.372C940.163 404.003 931.131 452.398 929.569 461.341C928.858 465.41 927.955 469.604 927.563 470.661L926.849 472.581L902.992 469.994C884.914 468.033 878.959 467.131 878.413 466.269C878.017 465.643 877.839 461.522 878.018 457.112C878.197 452.703 878.429 445.099 878.535 440.215C878.881 424.115 879.381 408.719 880.016 394.6C880.36 386.944 880.657 375.342 880.675 368.816C880.694 362.291 880.911 351.253 881.158 344.286C881.406 337.319 881.661 327.429 881.727 322.307C881.913 307.799 881.787 289.015 882.485 287.664C883.048 286.575 889.295 287.267 921.526 290.763C951.113 293.971 960.133 295.168 960.793 296.157Z" fill="white"/>
<path d="M915.826 492.679C921.293 495.578 928.104 503.142 930.953 509.477C934.718 517.85 934.905 529.56 931.41 537.994C929.226 543.265 922.994 550.869 918.362 553.914C910.216 559.271 897.333 561.711 888.57 559.557C872.414 555.586 861.034 542.475 859.736 526.336C858.504 510.997 869.951 494.499 885.008 489.914C891.461 487.949 894.638 487.787 903.054 488.995C909.029 489.853 912.246 490.78 915.826 492.679Z" fill="white"/>
<path d="M222.987 235.197C224.934 233.251 361.082 233.822 374.332 235.832C393.349 238.717 418.101 248.944 434.084 260.521C443.938 267.661 459.538 283.421 467.672 294.457C473.887 302.888 481.832 317.632 484.107 324.951C484.729 326.954 485.755 330.026 486.387 331.778C487.018 333.531 487.957 336.603 488.471 338.605C488.987 340.608 489.849 343.929 490.388 345.986C493.133 356.454 494.072 365.802 494.088 382.814C494.108 404.789 493.527 408.416 486.518 430.089C483.391 439.756 474.556 457.747 468.704 466.362C463.204 474.458 452.699 485.959 444.046 493.354C424.662 509.923 405.24 519.56 379.377 525.44L368.907 527.822L296.62 528.166C256.862 528.355 223.995 528.172 223.584 527.761C223.171 527.329 222.578 461.631 222.265 381.749C221.776 257.036 221.879 236.307 222.987 235.197ZM366.818 301.004C360.049 299.904 290.5 299.592 289.505 300.657C288.939 301.264 288.886 312.608 289.136 380.855C289.296 424.488 289.808 460.613 289.81 460.758C289.81 460.758 306.81 461.083 327.12 460.979L364.046 460.792L369.395 459.488C382.607 456.27 392.528 450.997 402.43 441.93C406.85 437.883 412.217 431.59 415.027 427.159C418.016 422.445 422.529 412.599 424.126 407.309C427.707 395.448 428.004 393.463 427.994 381.438C427.985 372.129 427.506 367.013 426.104 361.285C425.829 360.159 425.388 358.342 425.125 357.246C424.862 356.15 424.382 354.469 424.06 353.51C423.737 352.551 423.213 350.869 422.895 349.773C421.733 345.768 417.674 337.7 414.5 333.086C410.344 327.047 402.375 318.423 397.341 314.516C389.177 308.18 376.533 302.582 366.818 301.004Z" fill="white"/>
</svg>
