<svg width="832" height="832" viewBox="0 0 832 832" fill="none" xmlns="http://www.w3.org/2000/svg">
<rect width="832" height="832" fill="#2A3EF7"/>
<path d="M281.202 169.035C282.579 170.334 281.889 193.104 282.08 203.906C282.228 212.156 283.02 233.165 283.842 250.589C284.662 268.014 285.655 290.424 286.046 300.39C288.587 365.167 292.294 453.089 293.165 469.292C293.562 476.665 293.674 484.334 293.415 486.331L292.943 489.963L250.349 495.039C218.074 498.885 207.34 499.705 206.043 498.423C205.1 497.493 203.135 490.386 201.676 482.633C200.217 474.88 197.567 461.543 195.789 452.994C189.926 424.813 184.613 397.795 180.047 372.948C177.57 359.475 173.427 339.147 170.839 327.773C168.25 316.4 164.194 297.086 161.827 284.852C159.459 272.619 155.932 255.289 153.99 246.342C148.486 220.997 140.722 188.33 141.394 185.697C141.937 183.573 153.096 182.269 210.64 175.412C263.463 169.117 279.656 167.578 281.202 169.035Z" fill="white"/>
<path d="M281.816 529.396C292.503 532.251 307.404 542.689 314.91 552.579C324.832 565.651 329.862 585.972 327.162 602.066C325.474 612.125 317.674 627.871 310.83 635.036C298.792 647.639 277.333 657.064 261.205 656.832C231.468 656.404 206.38 638.139 197.638 610.55C189.33 584.328 202.642 550.993 227.026 536.959C237.477 530.945 242.945 529.387 258.089 528.11C268.842 527.205 274.817 527.527 281.816 529.396Z" fill="white"/>
<path d="M494.15 177.856C495.321 179.344 491.277 201.763 489.872 212.475C488.8 220.657 486.482 241.552 484.722 258.907C482.961 276.261 480.635 298.572 479.551 308.487C472.501 372.929 463.188 460.435 461.657 476.59C460.961 483.94 459.94 491.541 459.389 493.478L458.386 497.001L415.51 495.734C383.02 494.773 372.283 493.999 371.189 492.54C370.394 491.481 369.499 484.162 369.201 476.278C368.903 468.395 368.251 454.812 367.754 446.094C366.115 417.357 364.849 389.85 364.001 364.601C363.541 350.911 362.444 330.193 361.563 318.563C360.681 306.932 359.521 287.231 358.986 274.782C358.451 262.332 357.52 244.672 356.92 235.536C355.218 209.656 352.362 176.201 353.415 173.696C354.265 171.676 365.495 172.034 423.42 173.746C476.594 175.318 492.837 176.187 494.15 177.856Z" fill="white"/>
<path d="M441.559 534.36C451.708 538.76 464.904 551.284 470.869 562.174C478.752 576.568 480.727 597.408 475.681 612.927C472.526 622.627 462.488 637.049 454.66 643.125C440.894 653.813 418.278 659.967 402.361 657.357C373.014 652.544 350.897 630.774 346.324 602.198C341.978 575.036 360.065 544.031 386.253 533.751C397.477 529.346 403.116 528.612 418.283 529.585C429.051 530.277 434.913 531.478 441.559 534.36Z" fill="white"/>
<path d="M689.525 184.661C690.575 186.236 684.786 208.269 682.546 218.838C680.835 226.91 676.886 247.56 673.772 264.723C670.656 281.886 666.587 303.946 664.729 313.745C652.649 377.437 636.504 463.943 633.712 479.928C632.442 487.201 630.828 494.699 630.127 496.587L628.851 500.02L586.206 495.395C553.891 491.89 543.248 490.277 542.272 488.736C541.562 487.618 541.244 480.252 541.565 472.369C541.886 464.487 542.3 450.895 542.489 442.165C543.108 413.387 544.002 385.866 545.136 360.628C545.75 346.944 546.281 326.204 546.314 314.54C546.348 302.876 546.735 283.145 547.178 270.692C547.62 258.239 548.077 240.56 548.195 231.405C548.528 205.471 548.303 171.896 549.549 169.481C550.555 167.534 561.722 168.771 619.335 175.019C672.222 180.755 688.346 182.894 689.525 184.661Z" fill="white"/>
<path d="M609.147 535.945C618.919 541.127 631.093 554.647 636.186 565.971C642.916 580.938 643.251 601.87 637.004 616.945C633.099 626.367 621.96 639.959 613.68 645.402C599.119 654.978 576.09 659.34 560.427 655.49C531.547 648.391 511.205 624.955 508.886 596.107C506.683 568.689 527.145 539.197 554.059 531.002C565.594 527.491 571.272 527.2 586.316 529.359C596.997 530.893 602.747 532.55 609.147 535.945Z" fill="white"/>
</svg>
